<svg version="1.1" xmlns="http://www.w3.org/2000/svg" xmlns:xlink="http://www.w3.org/1999/xlink" x="0px" y="0px" viewBox="0 0 260 156.7" style="enable-background:new 0 0 260 156.7;" xml:space="preserve">
<style type="text/css">
    .b {
      fill: #000000;
    }

    .y {
      fill: #FFCC00;
    }
</style>
                                <g>
                                    <rect class="b" x="99.1" y="56.8" width="8.1" height="43.5"></rect>
                                    <path class="b" d="M140.1,100.2H133V79.6c0-4.3-1.9-6.6-5.3-6.9c-2.1-0.2-5.5,0.3-8,0.9v26.6h-7.1V68.6c0,0,8.6-1.9,16.4-1.9
		c3.4,0,6.1,1.2,8.1,3.2c2,2,3,4.8,3,8.4V100.2z"></path>
                                    <path class="b" d="M170.9,71.7c0-5.2-2.6-7.9-7.7-7.9h-9v15.6h8.9c2.5,0,4.4-0.7,5.8-2C170.2,76,170.9,74.1,170.9,71.7
		 M179.2,71.7c0,4.4-1.4,8-4.1,10.7c-2.7,2.7-6.5,4-11.1,4h-9.8v13.9h-8V56.8h17.3c5.1,0,9,1.3,11.7,4
		C177.9,63.4,179.2,67,179.2,71.7"></path>
                                    <path class="b" d="M204.6,83.8c0-3.3-0.8-5.8-2.3-7.7c-1.5-1.9-3.5-2.9-6-2.9c-2.5,0-4.5,1-6,2.9c-1.5,1.9-2.3,4.5-2.3,7.7
		c0,3.3,0.8,5.8,2.3,7.7c1.5,1.9,3.5,2.9,6,2.9c2.5,0,4.5-1,6-2.9C203.8,89.7,204.6,87.1,204.6,83.8 M212,83.8
		c0,5.2-1.5,9.4-4.4,12.6c-2.9,3.2-6.7,4.8-11.3,4.8c-4.6,0-8.4-1.6-11.3-4.8c-2.9-3.2-4.4-7.4-4.4-12.6c0-5.2,1.5-9.4,4.4-12.5
		c2.9-3.2,6.7-4.7,11.3-4.7c4.7,0,8.5,1.6,11.4,4.7C210.6,74.4,212,78.6,212,83.8"></path>
                                    <path class="b" d="M242.9,89.8c0,3.3-1.3,6-3.8,8.1c-2.5,2.1-5.9,3.2-10.1,3.2c-6.5,0-11.5-1.9-15.1-5.8l5.5-4.6
		c2.7,2.7,5.9,4,9.5,4c2,0,3.6-0.4,4.8-1.2c1.2-0.8,1.8-1.8,1.8-3c0-1.4-0.7-2.3-2-2.8c-0.8-0.3-2.9-0.7-6.3-1.2
		c-4.1-0.6-7.1-1.5-8.8-2.7c-2.1-1.5-3.1-3.7-3.1-6.6c0-3,1.2-5.4,3.7-7.4c2.5-2,5.8-3,10-3c5,0,9.3,1.7,12.9,5l-4.3,4.5
		c-2.6-2.3-5.5-3.4-8.8-3.4c-4.2,0-6.3,1.2-6.3,3.5c0,1.4,1,2.3,2.9,2.8c2.7,0.4,5.4,0.9,8.1,1.4C239.8,81.6,242.9,84.7,242.9,89.8"></path>
                                    <path class="b" d="M259.9,100.2c-1.2,0.3-2.4,0.5-3.7,0.5c-4.1,0-6.7-0.9-8-2.7c-1-1.4-1.6-4.1-1.6-8.1V58.1h7.1v9.4h6.3v5.8
		h-6.3v16.2c0,1.9,0.2,3.1,0.7,3.7c0.6,0.8,1.8,1.2,3.6,1.2c0.5,0,1.1,0,1.8-0.1V100.2z"></path>
                                    <path class="y" d="M37.6,78.5c0,0-8.4,3.3-18.8,3.3C8.4,81.7,0,78.5,0,78.5s8.4-3.3,18.8-3.3C29.2,75.2,37.6,78.5,37.6,78.5"></path>
                                    <path class="y" d="M63.6,30.6c0,0-7.5-5-13.3-13.5C44.6,8.7,42.6,0,42.6,0s7.5,5,13.3,13.5C61.7,21.9,63.6,30.6,63.6,30.6"></path>
                                    <path class="y" d="M44.6,51.2c0,0-9-1-18.2-5.8c-9.2-4.8-15-11.5-15-11.5s9,1,18.2,5.8C38.7,44.5,44.6,51.2,44.6,51.2"></path>
                                    <path class="y" d="M62.3,93c5.4-1.7,10.1-4.1,10.1-4.1s-12.8-3.6-11.9-17c2.9-22,20.7-39.2,43-42c-2.4-0.3-4.8-0.5-7.2-0.5
		c-27.6,0.1-49.8,22.1-49.7,49.1c0.1,27,22.6,48.8,50.1,48.7c2.3,0,4.6-0.2,6.8-0.5C84,124.4,68.1,110.8,62.3,93z"></path>
                                    <path class="y" d="M63.6,126.1c0,0-7.5,5-13.3,13.5c-5.8,8.4-7.8,17.1-7.8,17.1s7.5-5,13.3-13.5
		C61.7,134.8,63.6,126.1,63.6,126.1"></path>
                                    <path class="y" d="M44.6,105.5c0,0-9,1-18.2,5.8c-9.2,4.8-15,11.5-15,11.5s9-1,18.2-5.8C38.7,112.2,44.6,105.5,44.6,105.5"></path>
                                </g>
</svg>
